HIERARCHY
ROOT Hips
{
  OFFSET -102.467 93.6631 130.069
  CHANNELS 6 Xposition Yposition Zposition Zrotation Xrotation Yrotation
  JOINT LeftUpLeg
  {
    OFFSET 8.64259 1.95398 -2.38835
    CHANNELS 3 Zrotation Xrotation Yrotation
    JOINT LeftLeg
    {
      OFFSET 43.7702 0 0
      CHANNELS 3 Zrotation Xrotation Yrotation
      JOINT LeftFoot
      {
        OFFSET 40.6238 0 0
        CHANNELS 3 Zrotation Xrotation Yrotation
        JOINT LeftToeBase
        {
          OFFSET 12.7242 0 0
          CHANNELS 3 Zrotation Xrotation Yrotation
          End Site
          {
            OFFSET 0 0 0
          }
        }
      }
    }
  }
  JOINT RightUpLeg
  {
    OFFSET -8.2249 1.95398 -2.59336
    CHANNELS 3 Zrotation Xrotation Yrotation
    JOINT RightLeg
    {
      OFFSET 43.5653 0 0
      CHANNELS 3 Zrotation Xrotation Yrotation
      JOINT RightFoot
      {
        OFFSET 40.6238 0 0
        CHANNELS 3 Zrotation Xrotation Yrotation
        JOINT RightToeBase
        {
          OFFSET 12.7242 0 0
          CHANNELS 3 Zrotation Xrotation Yrotation
          End Site
          {
            OFFSET 0 0 0
          }
        }
      }
    }
  }
  JOINT Spine
  {
    OFFSET 0.165834 0.87714 6.61349
    CHANNELS 3 Zrotation Xrotation Yrotation
    JOINT Spine1
    {
      OFFSET 7.38963 1.71661e-005 0
      CHANNELS 3 Zrotation Xrotation Yrotation
      JOINT Spine2
      {
        OFFSET 11.9445 1.14441e-005 0
        CHANNELS 3 Zrotation Xrotation Yrotation
        JOINT Spine3
        {
          OFFSET 14.7254 4.19617e-005 0
          CHANNELS 3 Zrotation Xrotation Yrotation
          JOINT Spine4
          {
            OFFSET 10.9679 0 0
            CHANNELS 3 Zrotation Xrotation Yrotation
            JOINT RightShoulder
            {
              OFFSET 2.46616 -1.6653 3.69651
              CHANNELS 3 Zrotation Xrotation Yrotation
              JOINT RightArm
              {
                OFFSET 13.0012 0 0
                CHANNELS 3 Zrotation Xrotation Yrotation
                JOINT RightForeArm
                {
                  OFFSET 28.7848 1.52588e-005 0
                  CHANNELS 3 Zrotation Xrotation Yrotation
                  JOINT RightHand
                  {
                    OFFSET 26.5688 1.52588e-005 0
                    CHANNELS 3 Zrotation Xrotation Yrotation
                    End Site
                    {
                      OFFSET 0 0 0
                    }
                  }
                }
              }
            }
            JOINT LeftShoulder
            {
              OFFSET 2.38034 -1.29275 -3.7523
              CHANNELS 3 Zrotation Xrotation Yrotation
              JOINT LeftArm
              {
                OFFSET 16.3182 6.10351e-005 0
                CHANNELS 3 Zrotation Xrotation Yrotation
                JOINT LeftForeArm
                {
                  OFFSET 27.0901 0 0
                  CHANNELS 3 Zrotation Xrotation Yrotation
                  JOINT LeftHand
                  {
                    OFFSET 24.5451 1.52588e-005 0
                    CHANNELS 3 Zrotation Xrotation Yrotation
                    End Site
                    {
                      OFFSET 0 0 0
                    }
                  }
                }
              }
            }
            JOINT Neck
            {
              OFFSET 5.0226 -0.0266342 0
              CHANNELS 3 Zrotation Xrotation Yrotation
              JOINT Head
              {
                OFFSET 6.69363 2.86102e-005 0
                CHANNELS 3 Zrotation Xrotation Yrotation
                End Site
                {
                  OFFSET 0 0 0
                }
              }
            }
          }
        }
      }
    }
  }
}
MOTION
Frames:	15
Frame Time:	0.0416667
-367.745 60.4716 3.29238 -38.4258 0.761751 84.2205 11.3274 -6.60349 -105.996 -108.421 20.5405 5.18045 132.417 8.63831 11.6402 0.0756615 -0.422847 19.9047 -36.9518 -30.2043 -106.453 -78.3179 -33.2509 19.2959 62.9658 -14.5851 -0.756746 20.2337 16.9416 136.645 -0.854606 9.0678 -108.884 5.70289 -9.43111 -37.0499 -6.44027 -10.9447 -36.6872 -24.8952 1.28044 -38.0457 -4.88257 1.28046 -38.0457 171.459 -39.1007 20.3031 77.6838 -12.1227 -6.33548 -133.596 -54.464 -95.8397 47.4613 8.41392 13.6977 -73.7506 34.4975 12.2477 6.46172 33.5469 -92.9411 -36.2823 77.1013 -0.226016 49.3597 -16.6654 -37.8208 -26.1922 -41.9103 -136.603 81.6811 42.2785 74.4917 
-368.974 60.1689 2.94544 -38.5285 1.02689 84.0054 10.8678 -7.01935 -103.452 -108.71 21.1484 3.59532 134.743 7.15298 9.466 -1.20772 -0.189835 18.3604 -36.9781 -31.3501 -106.518 -82.1683 -30.4089 18.1057 65.0671 -17.2812 2.52401 19.7396 16.1103 136.066 -0.885933 9.04349 -108.881 5.74155 -9.49868 -37.0403 -6.40087 -11.0119 -36.6751 -24.858 1.21255 -38.0527 -4.84534 1.21255 -38.0527 171.521 -39.1425 20.3349 76.9558 -13.6082 -6.39726 -132.453 -55.0053 -93.6657 47.0863 8.13441 13.2418 -74.4619 33.844 12.1155 3.01611 33.9711 -91.0225 -35.1543 82.1597 -0.365236 50.7949 -17.3643 -38.1446 -26.1281 -41.9481 -136.446 81.3417 42.0209 74.6921 
-372.449 59.318 1.97322 -38.7778 1.79734 83.4084 9.64821 -8.26296 -95.037 -109.039 24.2843 -1.21129 139.354 3.99273 3.41487 -4.5555 0.449481 14.8975 -37.0255 -34.3659 -106.446 -93.1879 -18.8904 14.6175 74.3937 -25.136 17.0729 19.365 14.9006 133.199 -0.980966 8.97276 -108.871 5.85284 -9.7028 -37.012 -6.28737 -11.2149 -36.6392 -24.751 1.0077 -38.0745 -4.73835 1.00771 -38.0746 171.669 -39.2403 20.4128 74.91 -17.7554 -6.5287 -129.151 -56.3389 -87.1653 46.2693 7.27347 11.6475 -76.3953 32.0604 11.734 -7.62662 34.3815 -84.92 148.446 84.1361 -179.565 54.6195 -19.1415 -38.7259 -25.9447 -42.0659 -136.028 80.3228 41.2717 75.3174 
-377.842 58.001 0.499438 -39.0697 3.05595 82.5081 7.50176 -8.74611 -82.3955 -107.936 31.6052 -9.29347 142.207 1.51616 -5.97927 -8.95863 1.31314 11.4429 -37.1147 -38.574 -105.525 -107.6 1.99388 10.2 97.0381 -32.5166 49.877 22.2847 16.0628 123.388 -1.14303 8.85717 -108.855 6.03273 -10.0497 -36.9651 -6.10371 -11.5599 -36.5794 -24.5786 0.659903 -38.113 -4.56594 0.65989 -38.1131 171.836 -39.3492 20.5009 71.7846 -24.0812 -6.59757 -124.031 -57.923 -76.2156 45.6703 5.71956 8.30128 -79.2609 29.4004 11.128 -26.2114 31.99 -74.163 159.889 65.1945 -179.93 60.0008 -21.3259 -38.7916 -25.6744 -42.232 -135.432 78.6438 40.0296 76.373 
-384.875 56.4224 -1.4657 -39.2714 4.81801 81.3744 6.9032 -0.219482 -54.2845 -85.4252 46.4301 -44.2318 132.38 5.96946 -26.5799 -13.5452 2.16244 8.973 -36.7224 -43.3544 -103.421 -119.793 18.6901 5.9063 128.298 -35.4086 86.6456 34.1378 21.5581 101.095 -1.37798 8.69843 -108.832 6.27674 -10.5497 -36.8969 -5.85413 -12.0572 -36.4925 -24.3464 0.158353 -38.168 -4.33373 0.158348 -38.168 171.962 -39.4421 20.5597 67.8943 -32.0388 -6.40976 -117.993 -59.3841 -61.0967 45.8355 3.2496 2.53694 -82.819 26.0771 10.3267 -50.2325 22.4606 -61.6498 179.3 44.5322 -179.999 65.8959 -23.171 -37.9037 -25.3757 -42.3497 -134.739 76.3761 38.243 77.7896 
-393.509 55.2521 -4.05079 -39.2017 7.13133 80.0463 -23.7411 41.1158 -14.0822 94.5236 -35.8086 -94.4013 59.0102 -3.33726 75.1247 -17.8681 2.84714 7.54143 -33.84 -47.2454 -100.084 -128.879 17.875 1.50666 159.878 -43.3106 113.18 53.2232 21.8195 71.3441 -1.69446 8.50111 -108.801 6.57479 -11.2174 -36.7992 -5.5482 -12.721 -36.3697 -24.067 -0.512765 -38.2354 -4.05433 -0.512748 -38.2354 172.03 -39.5363 20.5572 63.6962 -40.992 -5.68904 -111.965 -60.9002 -42.5523 46.7386 -0.382463 -5.88806 -86.8962 22.2497 9.37335 -73.5906 4.46023 -53.7585 -156.311 22.0974 179.963 71.1941 -24.3938 -36.5141 -25.132 -42.2557 -134.025 73.6552 35.8283 79.4013 
-403.334 55.2127 -7.19095 -38.5959 10.0683 78.4773 -34.1203 33.8735 -8.57121 79.398 -30.5958 -95.4835 66.2874 -6.70625 59.2431 -21.6902 3.32629 6.86954 -25.6448 -48.8152 -93.7315 -137.125 15.5311 -3.32812 -174.052 -48.6815 134.309 59.3627 15.0054 50.771 -2.10064 10.4478 -110.575 4.9701 -12.8671 -41.3068 -7.36486 -14.479 -40.8317 -23.8731 -1.57128 -43.0149 -3.8604 -1.57126 -43.0149 171.498 -39.7723 19.8188 63.302 -50.792 -0.580192 -116.62 -71.8131 -30.4501 47.6165 -5.08636 -16.3529 -93.3664 16.2141 8.312 -98.5465 -20.1772 -49.1732 -131.003 -14.642 179.932 75.2486 -25.1698 -35.3558 -27.3598 -37.7425 -133.425 73.3192 31.5067 78.0986 
-413.269 56.2883 -10.5865 -37.0606 13.7105 76.4245 -43.5084 29.9503 -4.68327 74.6259 -29.6755 -97.9146 69.3924 -7.45515 54.1295 -24.8787 3.63675 6.62137 -17.4007 -45.8802 -86.8984 -144.077 24.5415 -7.21085 -164.727 -45.171 138.206 50.08 9.49734 41.3694 2.35992 3.78176 -78.4542 10.3217 8.64042 20.5131 -1.21067 9.56634 20.1406 -25.2712 1.69092 21.9804 -5.25851 1.69092 21.9804 178.822 -38.5312 28.0699 16.7825 -48.0274 -42.7391 -85.642 58.1759 -1.58097 47.5531 -10.0964 -27.3935 -71.3668 35.6682 7.57702 -32.0843 8.96623 -103.363 179.483 57.1317 -179.995 79.26 -30.334 -39.0358 75.8477 -78.7739 -43.9331 37.8869 23.9638 113.566 
-422.188 57.8872 -13.7676 -34.05 18.0748 73.3183 -51.7079 28.4503 -0.865747 70.6848 -28.1381 -99.5514 73.1017 -6.48594 50.4315 -27.4241 3.84704 6.53875 -17.3959 -36.2296 -84.2344 -148.82 43.7738 -9.33026 -175.298 -33.7952 119.648 30.0876 5.94993 37.2409 2.67761 11.8632 -74.5958 0.627558 11.0154 30.549 -11.3427 12.2891 30.0999 -31.0968 1.85075 32.2455 -11.0841 1.85071 32.2455 -154.005 -50.1054 44.4256 -19.6641 -5.15241 -50.3961 -79.1206 75.3774 -0.120822 46.5828 -14.7143 -37.9599 -62.8356 45.3622 18.7681 20.0964 -25.9454 -125.035 -30.155 54.2142 -0.0740134 77.5304 -34.5152 -44.9797 131.29 0.00446524 20.2934 7.98882 -32.2726 121.57 
-429.594 59.2274 -16.3059 -28.7971 22.9286 68.1936 -60.0403 28.7091 5.12724 67.9443 -27.2008 -100.66 77.6774 -4.16744 48.3947 -29.3746 4.01837 6.46527 -24.4501 -17.2551 -81.9744 -150.653 64.662 -12.1931 163.073 -10.1448 96.5019 7.23104 3.96863 30.5907 2.76734 12.6975 -74.8866 -0.977497 10.8729 30.1194 -12.9394 12.1304 29.6743 -32.7691 1.82263 31.801 -12.7565 1.82263 31.801 -148.728 -52.145 47.6134 -25.0818 -3.07644 -44.0654 -70.3756 73.4513 -0.104054 43.9777 -17.8728 -47.0002 -61.4041 46.2676 17.273 23.7977 -28.1959 -122.277 -31.8057 40.6421 -0.0595655 73.623 -37.6674 -51.4555 132.774 -0.415042 20.5889 7.05214 -37.7828 119.643 
-435.693 59.8179 -18.06 -20.1338 27.3981 59.7238 -69.53 29.3952 14.2955 66.2712 -27.2663 -101.555 82.551 -0.937399 48.1294 -30.7629 4.20141 6.29497 -37.7238 3.95046 -77.2245 -149.4 75.2586 -15.7101 137.974 14.0705 78.1492 -1.23503 4.53936 20.8642 2.90389 13.5631 -75.1823 -2.65995 10.8159 29.699 -14.613 12.0573 29.2547 -34.5174 1.87513 31.3873 -14.5047 1.87513 31.3873 -142.515 -54.5667 51.3688 -30.4769 -1.70504 -37.5834 -64.86 70.534 -0.0854673 40.5025 -19.4837 -54.2216 -62.1039 45.6183 17.0977 25.7725 -26.7462 -119.39 -32.2567 26.7702 -0.0507646 65.2802 -38.7483 -59.6737 134.694 -4.76519 19.4244 6.41151 -40.7354 117.242 
-440.284 59.1698 -18.9544 -6.81698 29.1491 46.9711 -81.0485 29.9654 27.9676 65.8135 -28.8647 -102.381 87.0361 3.58528 49.912 -31.5659 4.44503 5.9264 -62.9973 31.5857 -65.6073 -148.948 74.3158 -14.2242 115.087 35.0929 74.904 6.94961 4.24469 21.4211 3.23194 14.3256 -75.497 -4.19241 11.1586 29.2781 -16.1333 12.3835 28.8185 -36.1188 2.31408 31.0781 -16.1062 2.31408 31.0781 -136.789 -57.0878 54.7334 -36.7996 -3.54633 -32.1009 -61.7613 66.6613 -0.0692173 36.6155 -19.6792 -59.5065 -66.4811 42.0488 18.8763 24.0872 -19.4597 -116.843 -31.0282 18.6088 -0.0466597 56.2238 -35.7727 -64.124 136.148 -14.5522 16.3064 5.80428 -40.3104 113.933 
-443.352 58.4797 -18.8997 10.0191 24.0088 32.3894 -95.3639 29.9387 46.3282 67.9282 -30.3133 -101.726 90.7189 9.42374 54.5496 -31.6805 4.79773 5.23934 -100.096 40.5768 -36.5006 -142.661 70.0013 -13.5643 97.1714 42.315 75.3181 17.5103 4.3194 30.3081 3.97983 14.5954 -76.0747 -4.80447 12.3813 28.3647 -16.7146 13.5699 27.8519 -36.8886 3.72932 30.5371 -16.8759 3.72932 30.5372 -134.641 -59.9521 55.1554 -46.2109 -12.1254 -30.0019 -59.6309 60.9216 -0.0551873 32.5965 -18.7068 -62.8392 -75.9606 32.8536 23.813 19.5174 -6.56821 -111.604 -28.3295 16.4613 -0.042625 48.3199 -29.2983 -62.0164 134.109 -29.3642 9.95036 3.13585 -37.1018 108.242 
-444.471 58.8109 -17.7355 26.0164 9.2258 23.3294 -112.873 28.1772 69.6123 74.9541 -30.705 -97.9705 91.1615 15.8523 63.9671 -30.9142 5.29782 4.09036 -134.357 33.4654 -6.72436 -129.815 67.747 -15.8891 85.0857 40.9999 74.9037 25.3888 5.71058 39.1411 4.95756 2.39598 -79.1239 21.0693 15.901 19.3113 9.35941 16.7186 18.613 -12.3535 9.55122 23.0257 7.65915 9.55123 23.0257 142.68 -86.8954 -40.3003 163.682 -29.0388 175.178 -25.8617 45.9532 -0.0199198 31.4525 -17.0655 -60.1966 -108.898 -60.3565 57.5636 8.09131 12.161 -31.5577 -17.2177 72.0897 -2.48563 43.7328 -21.0204 -51.1357 -37.5646 16.5393 -85.8001 26.0456 27.0665 83.381 
-442.987 60.6372 -15.6815 40.5973 -12.0381 26.3113 -130.562 21.3095 95.7275 104.896 -32.9359 -87.4702 76.7424 11.885 89.0635 -29.0007 5.99908 2.2211 -157.954 16.9985 17.635 -111.199 68.0475 -21.6412 77.0662 35.3581 72.3823 30.5074 7.48437 45.9278 3.99916 5.52658 -82.1935 15.0304 11.7897 13.939 3.34373 12.3863 13.414 -18.7841 7.12183 16.7702 1.2286 7.12184 16.7702 82.4122 -73.3978 -105.688 -178.541 -45.8214 -160.361 -42.0597 43.994 -0.029076 25.2641 -14.4549 -62.8429 -102.117 -68.5442 66.9501 43.8981 36.0757 -49.6998 -22.1269 4.05144 -19.4384 26.8662 -8.52498 -33.6408 -23.0614 4.87569 -76.2631 14.5793 17.4053 90.6978 
